name analog
datacolumns 19
datarows 46
range 0.17350000000000002 0.196
endheader
time	ground_force_vx	ground_force_vy	ground_force_vz	ground_force_px	ground_force_py	ground_force_pz	l_ground_force_vx	l_ground_force_vy	l_ground_force_vz	l_ground_force_px	l_ground_force_py	l_ground_force_pz	ground_torque_x	ground_torque_y	ground_torque_z	l_ground_torque_x	l_ground_torque_y	l_ground_torque_z
0.17350000000000002	-0.0	-0.0	-0.0	4.375892162322998	57.1828727722168	-397.8345642089844	-2.129058837890625	-69.55695343017578	-413.23529052734375	-0.0	-0.0	-0.0	-0.0	-0.0	-0.0	95545.375	-15981.837890625	-240.44374084472656
0.17400000000000002	-0.0	-0.0	-0.0	3.56620454788208	57.17383193969727	-391.8224487304688	-2.661323547363281	-69.38255310058594	-414.1031188964844	-0.0	-0.0	-0.0	-0.0	-0.0	-0.0	96028.7109375	-15311.4140625	-465.2643737792969
0.17450000000000002	-0.0	-0.0	-0.0	3.564076662063598	56.50216674804688	-387.2317199707031	-3.234474897384644	-69.81945037841797	-417.5944519042969	-0.0	-0.0	-0.0	-0.0	-0.0	-0.0	96321.1015625	-14700.82421875	-790.5261840820312
0.17500000000000002	-0.0	-0.0	-0.0	2.6327595710754395	55.7998275756836	-385.6392517089844	-3.509676218032837	-69.98936462402344	-419.6978759765625	-0.0	-0.0	-0.0	-0.0	-0.0	-0.0	96496.09375	-14102.56640625	-941.356689453125
0.17550000000000002	-0.0	-0.0	-0.0	2.1846444606781006	55.39555740356445	-381.5989074707031	-3.814563751220703	-69.59101104736328	-421.2471618652344	-0.0	-0.0	-0.0	-0.0	-0.0	-0.0	96969.421875	-13628.2646484375	-1212.0244140625
0.176	-0.0	-0.0	-0.0	1.5660947561264038	54.58942794799805	-377.56494140625	-4.128210544586182	-69.6837158203125	-422.6521911621094	-0.0	-0.0	-0.0	-0.0	-0.0	-0.0	97268.65625	-13005.376953125	-1428.62109375
0.1765	-0.0	-0.0	-0.0	1.43497633934021	54.46437454223633	-374.8892211914063	-4.480916976928711	-69.72284698486328	-424.5764465332031	-0.0	-0.0	-0.0	-0.0	-0.0	-0.0	97370.515625	-12356.1005859375	-1622.071044921875
0.177	-0.0	-0.0	-0.0	0.8374394178390503	54.13666915893555	-372.41015625	-5.235908031463623	-69.59356689453125	-424.9175415039063	-0.0	-0.0	-0.0	-0.0	-0.0	-0.0	97332.90625	-12047.435546875	-1698.40771484375
0.1775	-0.0	-0.0	-0.0	0.1766647100448608	53.29647064208984	-367.8543090820313	-5.945521831512451	-69.68770599365234	-425.4674072265625	-0.0	-0.0	-0.0	-0.0	-0.0	-0.0	97702.3359375	-11533.3232421875	-2054.2333984375
0.178	-0.0	-0.0	-0.0	-0.5318528413772583	53.03429412841797	-364.281494140625	-6.568295001983643	-70.43746948242188	-427.0196838378906	-0.0	-0.0	-0.0	-0.0	-0.0	-0.0	97879.6875	-10809.96484375	-2263.124755859375
0.1785	-0.0	-0.0	-0.0	-0.848315954208374	52.316287994384766	-362.7158203125	-7.404686450958252	-70.52220916748047	-428.5941162109375	-0.0	-0.0	-0.0	-0.0	-0.0	-0.0	97948.75	-10684.91015625	-2545.81005859375
0.179	-0.0	-0.0	-0.0	-1.208240270614624	52.2335319519043	-361.3154602050781	-8.025771141052246	-71.45223999023438	-430.5173645019531	-0.0	-0.0	-0.0	-0.0	-0.0	-0.0	98265.6171875	-10166.6630859375	-2768.634765625
0.1795	-0.0	-0.0	-0.0	-1.6586893796920776	51.87239074707031	-359.8664855957031	-8.251755714416504	-71.982177734375	-432.58587646484375	-0.0	-0.0	-0.0	-0.0	-0.0	-0.0	98792.140625	-9625.4228515625	-2992.2138671875
0.18	-0.0	-0.0	-0.0	-2.233133316040039	51.51594161987305	-357.9393615722656	-8.825933456420898	-72.55548095703125	-434.6999816894531	-0.0	-0.0	-0.0	-0.0	-0.0	-0.0	98890.1484375	-9396.390625	-3050.438232421875
0.1805	-0.0	-0.0	-0.0	-2.410046100616455	51.83000946044922	-356.3478088378906	-9.400327682495115	-72.90730285644531	-436.9424743652344	-0.0	-0.0	-0.0	-0.0	-0.0	-0.0	99375.59375	-8785.6162109375	-3170.600341796875
0.181	-0.0	-0.0	-0.0	-2.9400134086608887	51.34173202514648	-355.1405944824219	-9.582221031188965	-73.39532470703125	-438.8893127441406	-0.0	-0.0	-0.0	-0.0	-0.0	-0.0	99701.5234375	-8326.935546875	-3230.635009765625
0.1815	-0.0	-0.0	-0.0	-2.8987224102020264	51.4282455444336	-355.48297119140625	-9.632733345031738	-74.23231506347656	-441.49951171875	-0.0	-0.0	-0.0	-0.0	-0.0	-0.0	100374.1484375	-8040.1630859375	-3376.81640625
0.182	-0.0	-0.0	-0.0	-2.853570938110352	51.1596908569336	-354.404541015625	-10.598971366882324	-74.63052368164062	-445.1683349609375	-0.0	-0.0	-0.0	-0.0	-0.0	-0.0	100959.46875	-7566.57666015625	-3556.514892578125
0.1825	-0.0	-0.0	-0.0	-3.392242670059204	51.517372131347656	-352.4735717773437	-11.26500129699707	-74.98889923095703	-448.6648254394531	-0.0	-0.0	-0.0	-0.0	-0.0	-0.0	101378.8359375	-7258.587890625	-3943.56005859375
0.183	-0.0	-0.0	-0.0	-3.882230281829834	51.25102996826172	-354.0691223144531	-11.714606285095217	-75.64811706542969	-450.3914794921875	-0.0	-0.0	-0.0	-0.0	-0.0	-0.0	102142.71875	-6669.36279296875	-4120.78369140625
0.1835	-0.0	-0.0	-0.0	-4.014472961425781	51.69661331176758	-352.83062744140625	-12.731682777404783	-76.04496765136719	-454.604248046875	-0.0	-0.0	-0.0	-0.0	-0.0	-0.0	102664.03125	-6374.833984375	-4434.4189453125
0.184	-0.0	-0.0	-0.0	-4.103683471679688	51.518287658691406	-353.0051574707031	-13.309803009033203	-76.5323257446289	-457.052001953125	-0.0	-0.0	-0.0	-0.0	-0.0	-0.0	103190.5546875	-5881.33837890625	-4642.19580078125
0.1845	-0.0	-0.0	-0.0	-4.861546993255615	51.69733428955078	-353.0084228515625	-13.752171516418455	-76.97483825683594	-459.3030700683594	-0.0	-0.0	-0.0	-0.0	-0.0	-0.0	103477.484375	-5441.99951171875	-4938.8974609375
0.185	-0.0	-0.0	-0.0	-4.815809726715088	51.78398513793945	-352.2892761230469	-14.414111137390137	-77.19407653808594	-460.3509521484375	-0.0	-0.0	-0.0	-0.0	-0.0	-0.0	103953.109375	-5042.41943359375	-5118.0166015625
0.1855	-0.0	-0.0	-0.0	-4.681787014007568	52.27603912353516	-352.4875793457031	-15.61395263671875	-77.19400787353516	-463.14794921875	-0.0	-0.0	-0.0	-0.0	-0.0	-0.0	104317.125	-4411.1572265625	-5415.16357421875
0.186	-0.0	-0.0	-0.0	-4.5953240394592285	52.1842155456543	-351.9476928710937	-15.92318344116211	-77.23771667480469	-464.900146484375	-0.0	-0.0	-0.0	-0.0	-0.0	-0.0	104418.2890625	-4165.2119140625	-5578.38720703125
0.1865	-0.0	-0.0	-0.0	-4.4150471687316895	52.05099105834961	-349.8305053710937	-16.234073638916016	-77.67929077148438	-465.0699462890625	-0.0	-0.0	-0.0	-0.0	-0.0	-0.0	104774.65625	-3600.181396484375	-5949.3740234375
0.187	-0.0	-0.0	-0.0	-4.730703353881836	52.2288932800293	-348.40093994140625	-16.36549186706543	-77.634765625	-466.46917724609375	-0.0	-0.0	-0.0	-0.0	-0.0	-0.0	104771.671875	-3054.311767578125	-6112.92724609375
0.1875	-0.0	-0.0	-0.0	-4.5058183670043945	52.09511947631836	-348.233642578125	-16.722288131713867	-77.45872497558594	-468.38330078125	-0.0	-0.0	-0.0	-0.0	-0.0	-0.0	105194.515625	-2813.243408203125	-6261.01611328125
0.188	-0.0	-0.0	-0.0	-4.77256965637207	52.31954956054688	-344.17462158203125	-17.07709503173828	-77.54644775390625	-468.565673828125	-0.0	-0.0	-0.0	-0.0	-0.0	-0.0	105132.1484375	-2337.753662109375	-6528.2666015625
0.1885	-0.0	-0.0	-0.0	-4.551299571990967	51.69625854492188	-344.3504638671875	-17.919578552246094	-77.59037780761719	-469.4407348632813	-0.0	-0.0	-0.0	-0.0	-0.0	-0.0	105366.125	-2035.38818359375	-6736.52490234375
0.189	-0.0	-0.0	-0.0	-4.4605255126953125	51.78424453735352	-343.64617919921875	-18.05409049987793	-77.76786804199219	-470.4826354980469	-0.0	-0.0	-0.0	-0.0	-0.0	-0.0	105344.1640625	-1547.657958984375	-6989.017578125
0.1895	-0.0	-0.0	-0.0	-4.371126174926758	51.561466217041016	-341.5235290527344	-18.807025909423828	-77.81208801269531	-471.0068664550781	-0.0	-0.0	-0.0	-0.0	-0.0	-0.0	105611.2734375	-1327.5194091796875	-7152.7373046875
0.19	-0.0	-0.0	-0.0	-3.5686519145965576	51.3390007019043	-339.9368591308594	-19.116771697998047	-77.81246948242188	-471.0034484863281	-0.0	-0.0	-0.0	-0.0	-0.0	-0.0	105677.234375	-937.4423217773438	-7375.25439453125
0.1905	-0.0	-0.0	-0.0	-3.880478382110596	51.56175994873047	-339.75909423828125	-19.427661895751957	-77.50283813476562	-472.0521240234375	-0.0	-0.0	-0.0	-0.0	-0.0	-0.0	105693.90625	-750.5437622070312	-7568.16845703125
0.191	-0.0	-0.0	-0.0	-3.256186962127685	51.071720123291016	-337.2868347167969	-19.78250503540039	-77.81156158447266	-471.7050476074219	-0.0	-0.0	-0.0	-0.0	-0.0	-0.0	105611.53125	-392.4534606933594	-7805.8623046875
0.1915	-0.0	-0.0	-0.0	-2.854736328125	51.2054557800293	-335.5209350585937	-20.625375747680664	-77.89956665039062	-471.530029296875	-0.0	-0.0	-0.0	-0.0	-0.0	-0.0	105418.140625	-60.808502197265625	-7969.57275390625
0.192	-0.0	-0.0	-0.0	-2.7211251258850098	50.67029571533203	-336.40362548828125	-21.15751266479492	-77.98810577392578	-472.052978515625	-0.0	-0.0	-0.0	-0.0	-0.0	-0.0	105456.3359375	200.6883850097656	-8029.31787109375
0.1925	-0.0	-0.0	-0.0	-2.0959510803222656	50.18081665039063	-334.1066589355469	-21.02445602416992	-77.8996353149414	-471.8792114257813	-0.0	-0.0	-0.0	-0.0	-0.0	-0.0	105385.2890625	382.4691467285156	-8029.19091796875
0.193	-0.0	-0.0	-0.0	-2.139967441558838	50.22593307495117	-334.107177734375	-21.73379135131836	-77.76707458496094	-470.8316650390625	-0.0	-0.0	-0.0	-0.0	-0.0	-0.0	105047.046875	459.2529296875	-8207.6728515625
0.1935	-0.0	-0.0	-0.0	-1.3398780822753906	49.512454986572266	-334.286865234375	-21.823041915893555	-77.9876708984375	-470.4829406738281	-0.0	-0.0	-0.0	-0.0	-0.0	-0.0	105091.7421875	715.9949951171875	-8341.2607421875
0.194	-0.0	-0.0	-0.0	-1.3825652599334717	49.5117416381836	-333.22918701171875	-21.86684799194336	-77.63427734375	-469.0856628417969	-0.0	-0.0	-0.0	-0.0	-0.0	-0.0	105104.390625	829.6863403320312	-8415.40234375
0.1945	-0.0	-0.0	-0.0	-0.5357311964035034	49.06745910644531	-332.69549560546875	-21.911563873291016	-77.59013366699219	-468.3875122070313	-0.0	-0.0	-0.0	-0.0	-0.0	-0.0	104869.984375	972.5694580078124	-8400.65625
0.195	-0.0	-0.0	-0.0	0.0437937080860137	48.7980842590332	-333.2220764160156	-21.645431518554688	-77.54721069335938	-468.3831176757813	-0.0	-0.0	-0.0	-0.0	-0.0	-0.0	104670.578125	784.084228515625	-8326.126953125
0.1955	-0.0	-0.0	-0.0	-0.1341116726398468	48.44267272949219	-332.5224304199219	-21.64586639404297	-77.23666381835938	-469.4352111816406	-0.0	-0.0	-0.0	-0.0	-0.0	-0.0	104653.5546875	929.3956909179688	-8281.615234375
0.196	-0.0	-0.0	-0.0	0.4487113654613495	48.1753158569336	-332.5228576660156	-21.64492416381836	-77.54593658447266	-467.8652038574219	-0.0	-0.0	-0.0	-0.0	-0.0	-0.0	104670.2734375	1162.0948486328125	-8296.7802734375
